<?xml version="1.0" encoding="utf-8"?>
<!-- Generator: Adobe Illustrator 14.0.0, SVG Export Plug-In . SVG Version: 6.00 Build 43363)  -->
<!DOCTYPE svg PUBLIC "-//W3C//DTD SVG 1.1//EN" "http://www.w3.org/Graphics/SVG/1.1/DTD/svg11.dtd">
<svg version="1.1" id="Layer_1" xmlns="http://www.w3.org/2000/svg" xmlns:xlink="http://www.w3.org/1999/xlink" x="0px" y="0px"
	 width="792px" height="792px" viewBox="0 0 792 792" enable-background="new 0 0 792 792" xml:space="preserve">
<path fill="#6AB4A5" d="M597.553,563.225L648,581.926v13.277l-50.447-18.701l-50.324,18.701l-50.457-18.701l-50.324,18.701
	L396,576.502l-50.447,18.701l-50.325-18.701l-50.456,18.701l-50.325-18.701L144,595.203v-13.277l50.447-18.701l50.325,18.701
	l50.456-18.701l50.325,18.701L396,563.225l50.447,18.701l50.324-18.701l50.457,18.701L597.553,563.225z M597.553,491.552
	l-50.324,18.701l-50.457-18.701l-50.324,18.701L396,491.552l-50.447,18.701l-50.325-18.701l-50.456,18.701l-50.325-18.701
	L144,510.253v13.231l50.447-18.701l50.325,18.701l50.456-18.701l50.325,18.701L396,504.783l50.447,18.701l50.324-18.701
	l50.457,18.701l50.324-18.701L648,523.484v-13.231L597.553,491.552z M547.229,546.112l-50.457-18.701l-50.324,18.701L396,527.411
	l-50.447,18.701l-50.325-18.701l-50.456,18.701l-50.325-18.701L144,546.112v13.231l50.447-18.701l50.325,18.701l50.456-18.701
	l50.325,18.701L396,540.643l50.447,18.701l50.324-18.701l50.457,18.701l50.324-18.701L648,559.344v-13.231l-50.447-18.701
	L547.229,546.112z"/>
</svg>
